<?xml version="1.0" standalone="no"?>
<!DOCTYPE svg PUBLIC "-//W3C//DTD SVG 20010904//EN"
 "http://www.w3.org/TR/2001/REC-SVG-20010904/DTD/svg10.dtd">
<svg version="1.0" xmlns="http://www.w3.org/2000/svg"
 width="52.000000pt" height="52.000000pt" viewBox="0 0 52.000000 52.000000"
 preserveAspectRatio="xMidYMid meet">

<g transform="translate(0.000000,52.000000) scale(0.100000,-0.100000)"
fill="#ff6200" stroke="none">
<path d="M97 514 c-4 -4 -7 -101 -7 -216 l0 -208 215 0 215 0 -2 213 -3 212
-206 3 c-113 1 -208 -1 -212 -4z m151 -33 c2 -13 -2 -28 -10 -32 -9 -6 -8 -9
7 -9 18 0 20 5 17 35 -4 35 -4 35 37 35 l41 0 0 -55 c0 -41 4 -55 14 -55 8 0
21 -2 28 -5 9 -4 14 2 15 16 2 17 -1 19 -10 10 -25 -25 -38 -12 -35 37 l3 47
75 0 75 0 3 -47 c3 -43 1 -48 -17 -48 -12 0 -21 5 -21 10 0 6 -4 10 -9 10 -6
0 -9 -9 -8 -19 1 -16 6 -19 29 -14 l28 6 0 -73 0 -72 -35 4 c-30 3 -35 1 -35
-17 0 -15 3 -16 9 -7 4 8 19 12 32 10 22 -3 24 -8 27 -75 l3 -73 -101 0 -100
0 0 75 c0 72 1 75 23 75 13 0 28 -5 35 -12 9 -9 12 -8 12 8 0 17 -6 19 -40 16
l-40 -4 0 -79 0 -79 -100 0 c-105 0 -124 10 -66 34 39 16 66 51 66 83 0 21 -5
23 -50 23 -49 0 -50 1 -50 30 l0 30 79 0 79 0 4 40 c3 34 1 40 -16 40 -16 0
-17 -3 -8 -12 7 -7 12 -22 12 -35 0 -22 -3 -23 -75 -23 l-75 0 0 93 c0 52 3
97 7 101 4 4 37 6 73 4 60 -3 65 -5 68 -27z m-58 -271 c0 -27 -43 -70 -70 -70
-17 0 -20 6 -20 45 l0 45 45 0 c39 0 45 -3 45 -20z"/>
<path d="M9 493 c-12 -15 -12 -16 4 -10 16 6 17 -7 17 -193 0 -186 -1 -199
-17 -193 -16 6 -16 5 -4 -10 17 -22 35 -22 52 0 12 15 12 16 -4 10 -16 -6 -17
7 -17 193 0 186 1 199 18 193 15 -6 15 -5 3 10 -7 9 -19 17 -26 17 -7 0 -19
-8 -26 -17z"/>
<path d="M71 47 c-8 -11 -6 -18 9 -32 18 -17 20 -17 14 -2 -6 16 10 17 196 17
186 0 202 -1 196 -17 -6 -15 -4 -15 14 2 15 14 17 21 9 32 -13 15 -33 18 -24
3 4 -7 -63 -10 -195 -10 -132 0 -199 3 -195 10 9 15 -11 12 -24 -3z"/>
</g>
</svg>
